<?xml version="1.0" encoding="utf-8"?><svg width="277" height="239" viewBox="0 0 277 239" xmlns="http://www.w3.org/2000/svg" xmlns:xlink="http://www.w3.org/1999/xlink"><svg width="66" height="66" viewBox="-1 -1 66 66" id="comment" x="132" y="128" xmlns="http://www.w3.org/2000/svg"><defs><style>.acls-1,.acls-2{fill:#2b517a}.acls-2,.acls-3{fill-rule:evenodd}.acls-3{fill:none;stroke:#fff;stroke-width:1px}</style></defs><rect id="aRounded_Rectangle_1" data-name="Rounded Rectangle 1" class="acls-1" x="2" y="2" width="60" height="50" rx="10" ry="10"/><path class="acls-2" d="M34 52l8 10 11-10"/><path class="acls-3" d="M9 41h45M9 31h46M9 21h45M9 11h27"/></svg><svg width="145" height="62" viewBox="-1 -1 145 62" id="dream-vacation-logo" xmlns="http://www.w3.org/2000/svg"><defs><style>.bcls-1,.bcls-2{font-size:25px;fill:#fff;text-anchor:middle;font-family:Arial}.bcls-2{font-size:33.333px;font-weight:700}</style></defs><text id="bDream" class="bcls-1" x="74" y="24"><tspan x="74">Dream</tspan></text><text id="bVacation" class="bcls-2" x="73" y="53"><tspan x="73">Vacation</tspan></text></svg><svg id="facebook" data-name="Layer 1" width="23.23" height="44.01" viewBox="-1 -1 23.23 44.01" x="44.01" y="194" xmlns="http://www.w3.org/2000/svg"><defs><style>.ccls-1{fill:#fff}</style></defs><title>facebook</title><path class="ccls-1" d="M21.23.31V7H17.4a3.55 3.55 0 0 0-2.85.91 4.26 4.26 0 0 0-.74 2.72v4.77H21l-1 7.47h-6.19V42H6.27V22.85H0v-7.47h6.27V9.85q0-4.69 2.55-7.28A9 9 0 0 1 15.63 0a39.57 39.57 0 0 1 5.6.31z"/></svg><svg id="instagram" data-name="Layer 1" width="44.01" height="44.01" viewBox="-1 -1 44.01 44.01" y="194" xmlns="http://www.w3.org/2000/svg"><defs><style>.dcls-1{fill:#fff}</style></defs><title>instagram</title><path class="dcls-1" d="M37.25 35.49V17.77h-3.69a11.77 11.77 0 0 1 .57 3.58 12.12 12.12 0 0 1-1.75 6.36 12.76 12.76 0 0 1-4.76 4.59 13.13 13.13 0 0 1-6.56 1.7 12.78 12.78 0 0 1-9.19-3.71 12 12 0 0 1-3.83-9 11.77 11.77 0 0 1 .49-3.56H4.68v17.76a1.63 1.63 0 0 0 1.6 1.67h29.3a1.63 1.63 0 0 0 1.17-.47 1.59 1.59 0 0 0 .5-1.2zm-7.77-14.57A7.75 7.75 0 0 0 27 15.14a8.28 8.28 0 0 0-6-2.4 8.25 8.25 0 0 0-5.91 2.39 7.75 7.75 0 0 0-2.47 5.78 7.75 7.75 0 0 0 2.47 5.79A8.25 8.25 0 0 0 21 29.1a8.28 8.28 0 0 0 6-2.4 7.75 7.75 0 0 0 2.48-5.78zm7.76-9.84V6.56a1.84 1.84 0 0 0-.54-1.31 1.8 1.8 0 0 0-1.31-.56h-4.78a1.8 1.8 0 0 0-1.31.56 1.84 1.84 0 0 0-.54 1.31v4.52A1.87 1.87 0 0 0 30.6 13h4.8a1.87 1.87 0 0 0 1.85-1.89zM42 5.39v31.23A5.41 5.41 0 0 1 36.62 42H5.39a5.19 5.19 0 0 1-3.8-1.59A5.19 5.19 0 0 1 0 36.62V5.39a5.19 5.19 0 0 1 1.59-3.8A5.19 5.19 0 0 1 5.39 0h31.23a5.19 5.19 0 0 1 3.8 1.59A5.19 5.19 0 0 1 42 5.39z"/></svg><svg id="mail" data-name="Layer 1" width="66" height="50" viewBox="-1 -1 66 50" x="145" y="66" xmlns="http://www.w3.org/2000/svg"><defs><style>.ecls-1{fill:#2f5572}</style></defs><title>mail</title><path class="ecls-1" d="M0 0v8l32 16L64 8V0H0zm0 16v32h64V16L32 32z"/></svg><svg width="66" height="66" viewBox="-1 -1 66 66" id="money" y="128" xmlns="http://www.w3.org/2000/svg"><defs><style>.fcls-1{fill:none;stroke:#d59541;stroke-width:3px}.fcls-2{font-size:58.333px;fill:#d59541;text-anchor:middle;font-family:Arial}</style></defs><circle class="fcls-1" cx="32" cy="32" r="31"/><text id="f_" data-name="$" class="fcls-2" x="32.167" y="51"><tspan x="32.167">$</tspan></text></svg><svg width="66" height="66" viewBox="-1 -1 66 66" id="network" x="66" y="128" xmlns="http://www.w3.org/2000/svg"><defs><style>.gcls-1,.gcls-2{fill:none;stroke:#d59541;stroke-width:3px}.gcls-2{fill-rule:evenodd}</style></defs><circle class="gcls-1" cx="32" cy="32" r="31"/><circle class="gcls-1" cx="13" cy="33" r="5"/><circle id="gEllipse_2_copy_2" data-name="Ellipse 2 copy 2" class="gcls-1" cx="42" cy="16" r="5"/><circle id="gEllipse_2_copy" data-name="Ellipse 2 copy" class="gcls-1" cx="45" cy="46" r="5"/><path class="gcls-2" d="M16 30l22-13M16 34l25 10"/></svg><svg width="66" height="66" viewBox="-1 -1 66 66" id="package" y="62" xmlns="http://www.w3.org/2000/svg"><defs><style>.hcls-1,.hcls-2{fill:none;stroke:#d59541;stroke-width:3px}.hcls-2{fill-rule:evenodd}</style></defs><circle class="hcls-1" cx="32" cy="32" r="31"/><circle class="hcls-1" cx="32.5" cy="48.5" r="5.5"/><path class="hcls-2" d="M28.036 45.495L14.061 28.37l-4.607-1.753M26.541 31.859l14.322-11.792 6.992 8.492-14.322 11.792z"/><path class="hcls-2" d="M23.61 27.982l7.439-6.682 3.342 3.719-7.44 6.681zM35.3 43.925l16.915-13.37"/></svg><svg width="66" height="66" viewBox="-1 -1 66 66" id="reliable" x="211" xmlns="http://www.w3.org/2000/svg"><defs><style>.icls-1{fill:none;stroke:#d59541;stroke-width:3px}.icls-2{fill:#d59541;fill-rule:evenodd}</style></defs><circle class="icls-1" cx="32" cy="32" r="31"/><path class="icls-2" d="M9 35l17 15 26-30-3-3-24 26-13-12z"/></svg><svg width="66" height="66" viewBox="-1 -1 66 66" id="resource" x="211" y="66" xmlns="http://www.w3.org/2000/svg"><defs><style>.jcls-1,.jcls-2{fill:none;stroke:#d59541;stroke-width:3px}.jcls-2{fill-rule:evenodd}</style></defs><circle class="jcls-1" cx="32" cy="32" r="31"/><circle class="jcls-1" cx="31" cy="27" r="18"/><path class="jcls-2" d="M39 42l6 11"/><circle class="jcls-1" cx="30.5" cy="21.5" r="5.5"/><path class="jcls-2" d="M32 25v14"/></svg><svg width="66" height="66" viewBox="-1 -1 66 66" id="star" x="145" xmlns="http://www.w3.org/2000/svg"><defs><style>.kcls-1{fill:none;stroke:#d59541;stroke-width:3px}.kcls-2{fill:#d59541;fill-rule:evenodd}</style></defs><circle class="kcls-1" cx="32" cy="32" r="31"/><path class="kcls-2" d="M31.5 12L26 24.8 12 27l9.8 10-3.2 12 12.9-5 12.7 7L41 36l10-9-13.2-2.2z"/></svg><svg width="66" height="66" viewBox="-1 -1 66 66" id="tour" x="66" y="62" xmlns="http://www.w3.org/2000/svg"><defs><style>.lcls-1,.lcls-2{fill:none;stroke:#d59541;stroke-width:3px}.lcls-2{fill-rule:evenodd}</style></defs><circle class="lcls-1" cx="32" cy="32" r="31"/><rect id="lRounded_Rectangle_1" data-name="Rounded Rectangle 1" class="lcls-1" x="13" y="15" width="38" height="30" rx="2" ry="2"/><circle class="lcls-1" cx="23" cy="48" r="5"/><path class="lcls-2" d="M15 27h34M24 17v11M33 17v12M42 17v12"/><circle id="lEllipse_2_copy" data-name="Ellipse 2 copy" class="lcls-1" cx="42" cy="48" r="5"/></svg><svg id="twitter" data-name="Layer 1" width="53.78" height="44.06" viewBox="-1 -1 53.78 44.06" x="211" y="132" xmlns="http://www.w3.org/2000/svg"><defs><style>.mcls-1{fill:#fff}</style></defs><title>twitter</title><path class="mcls-1" d="M51.78 5a22.23 22.23 0 0 1-5.32 5.52v1.38a30.15 30.15 0 0 1-1.25 8.53 30.81 30.81 0 0 1-3.76 8.13 32.1 32.1 0 0 1-6.06 6.92 27 27 0 0 1-8.48 4.8 31 31 0 0 1-10.62 1.8A29.47 29.47 0 0 1 0 37.29a22.71 22.71 0 0 0 2.56.13 20.78 20.78 0 0 0 13.17-4.53 10.63 10.63 0 0 1-9.92-7.36 13.45 13.45 0 0 0 2 .16 11 11 0 0 0 2.79-.36 10.44 10.44 0 0 1-6.09-3.67 10.25 10.25 0 0 1-2.41-6.75v-.13a10.52 10.52 0 0 0 4.8 1.34 10.6 10.6 0 0 1-3.45-3.78 10.34 10.34 0 0 1-1.28-5.07 10.4 10.4 0 0 1 1.45-5.33 30.08 30.08 0 0 0 9.71 7.83A29.57 29.57 0 0 0 25.53 13a11.79 11.79 0 0 1-.26-2.43 10.23 10.23 0 0 1 3-7.48 10.64 10.64 0 0 1 15 0l.21.22A20.81 20.81 0 0 0 50.33.8a10.3 10.3 0 0 1-4.67 5.85A21.14 21.14 0 0 0 51.78 5z"/></svg><svg id="youtube" data-name="Layer 1" width="36.75" height="44" viewBox="-1 -1 36.75 44" x="67.24" y="194" xmlns="http://www.w3.org/2000/svg"><defs><style>.ncls-1{fill:#fff}</style></defs><title>youtube</title><path class="ncls-1" d="M22.13 29.15v5q0 1.57-.91 1.57a1.5 1.5 0 0 1-1.06-.52v-7.11a1.5 1.5 0 0 1 1.06-.54q.91 0 .91 1.6zm7.92 0v1.08h-2.1v-1.06q0-1.59 1.06-1.59t1 1.59zM7.42 24h2.5v-2.14h-7.3v2.2h2.46V37.4h2.34V24zm6.75 13.4h2.09V25.82h-2.09v8.86a1.86 1.86 0 0 1-1.31 1 .48.48 0 0 1-.49-.47 6.52 6.52 0 0 1 0-.82v-8.57h-2.14V35a5.79 5.79 0 0 0 .19 1.71 1.26 1.26 0 0 0 1.36.87 3.43 3.43 0 0 0 2.39-1.43v1.25zm10.05-3.47v-4.6A8.33 8.33 0 0 0 24 27a1.63 1.63 0 0 0-1.67-1.31A2.82 2.82 0 0 0 20.16 27v-5.1h-2.08v15.5h2.09v-1.13a2.91 2.91 0 0 0 2.18 1.31A1.62 1.62 0 0 0 24 36.27a8.61 8.61 0 0 0 .22-2.35zm7.92-.24v-.3H30a11.6 11.6 0 0 1 0 1.43.9.9 0 0 1-.94.85q-1.08 0-1.08-1.61V32h4.19v-2.41a4.65 4.65 0 0 0-.66-2.72 3.2 3.2 0 0 0-5 0 4.52 4.52 0 0 0-.66 2.72v4.05a4.4 4.4 0 0 0 .66 2.72 3 3 0 0 0 2.49 1.2 2.9 2.9 0 0 0 3-2.51 10.31 10.31 0 0 0 .09-1.36zM17.89 12.3V7.38q0-1.61-1-1.61t-1 1.61v4.92q0 1.64 1 1.64t1-1.64zm16.85 17.6a40.6 40.6 0 0 1-.61 8.2 4.45 4.45 0 0 1-1.36 2.32 4.1 4.1 0 0 1-2.39 1.08 125.31 125.31 0 0 1-13 .49 125.31 125.31 0 0 1-13-.49A4.15 4.15 0 0 1 2 40.42 4.28 4.28 0 0 1 .63 38.1 39.76 39.76 0 0 1 0 29.9a40.6 40.6 0 0 1 .61-8.2A4.45 4.45 0 0 1 2 19.37a4.25 4.25 0 0 1 2.41-1.1q4.29-.47 13-.47t13 .47a4.4 4.4 0 0 1 3.75 3.42 39.76 39.76 0 0 1 .58 8.21zM11.35 0h2.39l-2.83 9.35v6.35H8.57V9.35a39.68 39.68 0 0 0-1.43-5Q6.27 2 5.61 0H8.1l1.67 6.16zM20 7.8v4.1a4.59 4.59 0 0 1-.66 2.76 2.88 2.88 0 0 1-2.49 1.19 2.9 2.9 0 0 1-2.46-1.19 4.68 4.68 0 0 1-.66-2.76V7.8a4.59 4.59 0 0 1 .66-2.74 2.9 2.9 0 0 1 2.46-1.19 2.88 2.88 0 0 1 2.49 1.19A4.59 4.59 0 0 1 20 7.8zM27.87 4v11.7h-2.13v-1.27a3.37 3.37 0 0 1-2.41 1.45A1.31 1.31 0 0 1 22 15a6 6 0 0 1-.19-1.76V4h2.13v8.6a6.14 6.14 0 0 0 0 .82.49.49 0 0 0 .47.52 1.87 1.87 0 0 0 1.31-1V4h2.16z"/></svg></svg>